<svg width="200" height="200" viewBox="0 0 100 100" fill="none" xmlns="http://www.w3.org/2000/svg">
  
  <ellipse cx="50" cy="94" rx="22" ry="5" fill="rgba(0,0,0,0.07)"></ellipse>
  
  <ellipse cx="50" cy="72" rx="24" ry="20" fill="#FBBF24"></ellipse>
  
  <ellipse cx="50" cy="80" rx="15" ry="10" fill="#F59E0B" opacity="0.25"></ellipse>
  
  <path d="M70 82 Q88 70 82 56 Q78 48 70 53" stroke="#F59E0B" stroke-width="6" stroke-linecap="round" fill="none"></path>
  
  <ellipse cx="50" cy="46" rx="28" ry="26" fill="#FCD34D"></ellipse>
  
  <ellipse cx="42" cy="36" rx="10" ry="7" fill="white" opacity="0.15"></ellipse>
  
  <polygon points="24,28 15,6 34,22" fill="#FCD34D"></polygon>
  <polygon points="25,27 17,10 32,22" fill="#FCA5A5"></polygon>
  
  <polygon points="76,28 85,6 66,22" fill="#FCD34D"></polygon>
  <polygon points="75,27 83,10 68,22" fill="#FCA5A5"></polygon>
  
  <ellipse cx="38" cy="44" rx="6" ry="6.5" fill="#17202E"></ellipse>
  <ellipse cx="62" cy="44" rx="6" ry="6.5" fill="#17202E"></ellipse>
  
  <circle cx="40" cy="41" r="2.2" fill="white"></circle>
  <circle cx="64" cy="41" r="2.2" fill="white"></circle>
  
  <circle cx="36.5" cy="46" r="1" fill="white" opacity="0.5"></circle>
  <circle cx="60.5" cy="46" r="1" fill="white" opacity="0.5"></circle>
  
  <ellipse cx="50" cy="52" rx="3" ry="2.2" fill="#FCA5A5"></ellipse>
  
  <path d="M43 56.5 Q46.5 60.5 50 57.5 Q53.5 60.5 57 56.5" stroke="#17202E" stroke-width="1.8" stroke-linecap="round" fill="none"></path>
  
  <ellipse cx="30" cy="54" rx="7" ry="4" fill="#FCA5A5" opacity="0.3"></ellipse>
  
  <ellipse cx="70" cy="54" rx="7" ry="4" fill="#FCA5A5" opacity="0.3"></ellipse>
  
  <line x1="4" y1="49" x2="32" y2="51" stroke="#92400E" stroke-width="1.1" stroke-linecap="round" opacity="0.3"></line>
  <line x1="4" y1="55" x2="32" y2="54" stroke="#92400E" stroke-width="1.1" stroke-linecap="round" opacity="0.3"></line>
  
  <line x1="68" y1="51" x2="96" y2="49" stroke="#92400E" stroke-width="1.1" stroke-linecap="round" opacity="0.3"></line>
  <line x1="68" y1="54" x2="96" y2="55" stroke="#92400E" stroke-width="1.1" stroke-linecap="round" opacity="0.3"></line>
  
  <ellipse cx="34" cy="90" rx="8" ry="5" fill="#FBBF24"></ellipse>
  <ellipse cx="66" cy="90" rx="8" ry="5" fill="#FBBF24"></ellipse>
  <ellipse cx="34" cy="89" rx="5" ry="3.5" fill="#F59E0B" opacity="0.4"></ellipse>
  <ellipse cx="66" cy="89" rx="5" ry="3.5" fill="#F59E0B" opacity="0.4"></ellipse>
</svg>